<svg width="274" height="274" viewBox="0 0 274 274" fill="none" xmlns="http://www.w3.org/2000/svg">
<rect width="274" height="274" fill="black"/>
<path d="M114.625 100H131.5L67.75 144.062L133.375 190H116.5L56.5 148.75H41.5V190H30.25V100H41.5V139.375H56.5L114.625 100ZM148.375 100H215.992C221.578 100 226.285 100.254 230.113 100.762C233.98 101.23 237.164 101.953 239.664 102.93C242.164 103.906 244.078 105.117 245.406 106.562C246.773 108.008 247.77 109.707 248.395 111.66C249.02 113.613 249.371 115.801 249.449 118.223C249.566 120.645 249.625 123.32 249.625 126.25C249.625 129.297 249.547 132.109 249.391 134.688C249.273 137.266 248.824 139.609 248.043 141.719C247.301 143.789 246.09 145.625 244.41 147.227C242.77 148.789 240.406 150.098 237.32 151.152C234.273 152.207 230.387 153.008 225.66 153.555C220.973 154.102 215.191 154.375 208.316 154.375H159.625V190H148.375V100ZM159.625 145H208.316C213.316 145 217.516 144.922 220.914 144.766C224.352 144.57 227.184 144.238 229.41 143.77C231.637 143.301 233.355 142.637 234.566 141.777C235.777 140.918 236.656 139.785 237.203 138.379C237.789 136.973 238.121 135.293 238.199 133.34C238.316 131.348 238.375 128.984 238.375 126.25C238.375 123.711 238.316 121.523 238.199 119.688C238.121 117.852 237.789 116.309 237.203 115.059C236.656 113.809 235.777 112.812 234.566 112.07C233.355 111.328 231.637 110.762 229.41 110.371C227.184 109.941 224.352 109.668 220.914 109.551C217.516 109.434 213.316 109.375 208.316 109.375H159.625V145Z" fill="white"/>
</svg>
