<svg width="23" height="22" viewBox="0 0 23 22" fill="none" xmlns="http://www.w3.org/2000/svg">
<path d="M0.665885 11C0.665885 10.6105 0.801885 10.2841 1.07389 10.021C1.34494 9.75705 1.68116 9.62505 2.08255 9.62505L17.9138 9.62505L11.0076 2.92192C10.7242 2.64692 10.5826 2.32013 10.5826 1.94155C10.5826 1.56388 10.7242 1.23755 11.0076 0.962548C11.2909 0.687548 11.6214 0.550048 11.9992 0.550048C12.377 0.550048 12.7076 0.687548 12.9909 0.962548L22.3409 10.0375C22.4826 10.175 22.5831 10.324 22.6426 10.4844C22.7012 10.6448 22.7305 10.8167 22.7305 11C22.7305 11.1834 22.7012 11.3612 22.6426 11.5335C22.5831 11.705 22.4826 11.848 22.3409 11.9625L12.9909 21.0375C12.7076 21.3125 12.377 21.45 11.9992 21.45C11.6214 21.45 11.2909 21.3125 11.0076 21.0375C10.7242 20.7625 10.5826 20.4358 10.5826 20.0572C10.5826 19.6795 10.7242 19.3532 11.0076 19.0782L17.9138 12.375L2.08255 12.375C1.68116 12.375 1.34494 12.2435 1.07389 11.9804C0.801885 11.7164 0.665885 11.3896 0.665885 11Z" fill="#DD6031"/>
</svg>
