<svg width="34" height="34" viewBox="0 0 34 34" fill="none" xmlns="http://www.w3.org/2000/svg">
<path d="M5.66589 17C5.66589 16.6105 5.80189 16.2841 6.07389 16.021C6.34494 15.757 6.68116 15.625 7.08255 15.625L22.9138 15.625L16.0076 8.92192C15.7242 8.64692 15.5826 8.32013 15.5826 7.94155C15.5826 7.56388 15.7242 7.23755 16.0076 6.96255C16.2909 6.68755 16.6214 6.55005 16.9992 6.55005C17.377 6.55005 17.7076 6.68755 17.9909 6.96255L27.3409 16.0375C27.4826 16.175 27.5831 16.324 27.6426 16.4844C27.7012 16.6448 27.7305 16.8167 27.7305 17C27.7305 17.1834 27.7012 17.3612 27.6426 17.5335C27.5831 17.705 27.4826 17.848 27.3409 17.9625L17.9909 27.0375C17.7076 27.3125 17.377 27.45 16.9992 27.45C16.6214 27.45 16.2909 27.3125 16.0076 27.0375C15.7242 26.7625 15.5826 26.4358 15.5826 26.0572C15.5826 25.6795 15.7242 25.3532 16.0076 25.0782L22.9138 18.375L7.08255 18.375C6.68116 18.375 6.34494 18.2435 6.07389 17.9804C5.80189 17.7164 5.66589 17.3896 5.66589 17Z" fill="#F4ECFF"/>
</svg>
