<svg width="30" height="30" viewBox="0 0 30 30" fill="none" xmlns="http://www.w3.org/2000/svg">
<path d="M26.2491 15.9875C26.0525 18.1153 25.254 20.143 23.947 21.8335C22.6399 23.524 20.8785 24.8072 18.8688 25.5332C16.859 26.2591 14.6841 26.3977 12.5985 25.9326C10.5129 25.4676 8.60289 24.4182 7.09193 22.9072C5.58097 21.3963 4.53157 19.4862 4.06653 17.4006C3.60149 15.315 3.74004 13.1401 4.46597 11.1304C5.1919 9.12064 6.47518 7.35921 8.16566 6.05219C9.85614 4.74517 11.8839 3.94663 14.0116 3.75C12.7659 5.43533 12.1665 7.51181 12.3223 9.60177C12.4782 11.6917 13.379 13.6563 14.8609 15.1382C16.3428 16.6202 18.3074 17.521 20.3974 17.6768C22.4873 17.8327 24.5638 17.2332 26.2491 15.9875Z" stroke="white" stroke-width="2" stroke-linecap="round" stroke-linejoin="round"/>
</svg>
