<svg width="62" height="62" viewBox="0 0 62 62" fill="none" xmlns="http://www.w3.org/2000/svg">
<path d="M29.4337 0.00150636C21.7099 -0.07698 14.271 2.91439 8.75179 8.31819C3.23258 13.722 0.0847159 21.096 0 28.8197C0.0297611 34.9237 1.99331 40.8611 5.60862 45.7793C9.22393 50.6974 14.305 54.3433 20.1219 56.193C21.5936 56.4606 22.1288 55.5776 22.1288 54.8016C22.1288 54.0257 22.1288 52.3132 22.1288 49.9049C13.9409 51.6442 12.2016 46.0518 12.2016 46.0518C11.6565 44.2962 10.4977 42.7955 8.93713 41.8241C6.26135 40.058 9.1512 40.0848 9.1512 40.0848C10.0761 40.2085 10.961 40.5399 11.7395 41.0543C12.518 41.5687 13.17 42.2527 13.6465 43.0549C14.4769 44.4948 15.8394 45.5511 17.4408 45.9965C19.0422 46.4419 20.7545 46.2408 22.209 45.4364C22.3586 43.9711 23.0222 42.606 24.0821 41.5832C17.5532 40.8608 10.7032 38.3991 10.7032 27.3481C10.6448 24.4654 11.7099 21.673 13.6733 19.5615C12.7791 17.0866 12.8847 14.3606 13.9676 11.9623C13.9676 11.9623 16.4561 11.1863 21.995 14.9056C26.8165 13.6208 31.8903 13.6208 36.7118 14.9056C42.331 11.1863 44.7392 11.9623 44.7392 11.9623C45.8221 14.3606 45.9277 17.0866 45.0335 19.5615C47.0425 21.6343 48.1654 24.4079 48.1642 27.2945C48.1642 38.3723 41.2607 40.8073 34.7852 41.5297C35.4943 42.2181 36.042 43.0551 36.389 43.9804C36.736 44.9057 36.8736 45.8964 36.7921 46.8813V54.7749C36.7921 54.7749 37.3272 56.4606 38.7989 56.1663C44.5994 54.305 49.6633 50.6584 53.2674 45.7471C56.8716 40.8359 58.8315 34.9114 58.8673 28.8197C58.7826 21.096 55.6348 13.722 50.1156 8.31819C44.5964 2.91439 37.1574 -0.07698 29.4337 0.00150636Z" fill="white"/>
</svg>
