<svg width="28" height="28" viewBox="0 0 28 28" fill="none" xmlns="http://www.w3.org/2000/svg">
<path d="M17.1111 0V3.11111H22.6956L7.40444 18.4022L9.59778 20.5956L24.8889 5.30444V10.8889H28V0M24.8889 24.8889H3.11111V3.11111H14V0H3.11111C2.28599 0 1.49467 0.327777 0.911223 0.911223C0.327777 1.49467 0 2.28599 0 3.11111V24.8889C0 25.714 0.327777 26.5053 0.911223 27.0888C1.49467 27.6722 2.28599 28 3.11111 28H24.8889C25.714 28 26.5053 27.6722 27.0888 27.0888C27.6722 26.5053 28 25.714 28 24.8889V14H24.8889V24.8889Z" fill="#DBAD81"/>
</svg>
