<svg width="32" height="33" viewBox="0 0 32 33" fill="none" xmlns="http://www.w3.org/2000/svg">
<path d="M3.66589 16.5C3.66589 16.1105 3.80189 15.7841 4.07389 15.521C4.34494 15.257 4.68116 15.125 5.08255 15.125L20.9138 15.125L14.0076 8.42192C13.7242 8.14692 13.5826 7.82013 13.5826 7.44155C13.5826 7.06388 13.7242 6.73755 14.0076 6.46255C14.2909 6.18755 14.6214 6.05005 14.9992 6.05005C15.377 6.05005 15.7076 6.18755 15.9909 6.46255L25.3409 15.5375C25.4826 15.675 25.5831 15.824 25.6426 15.9844C25.7012 16.1448 25.7305 16.3167 25.7305 16.5C25.7305 16.6834 25.7012 16.8612 25.6426 17.0335C25.5831 17.205 25.4826 17.348 25.3409 17.4625L15.9909 26.5375C15.7076 26.8125 15.377 26.95 14.9992 26.95C14.6214 26.95 14.2909 26.8125 14.0076 26.5375C13.7242 26.2625 13.5826 25.9358 13.5826 25.5572C13.5826 25.1795 13.7242 24.8532 14.0076 24.5782L20.9138 17.875L5.08255 17.875C4.68116 17.875 4.34494 17.7435 4.07389 17.4804C3.80189 17.2164 3.66589 16.8896 3.66589 16.5Z" fill="white"/>
</svg>
