<svg width="63" height="63" viewBox="0 0 63 63" fill="none" xmlns="http://www.w3.org/2000/svg">
<rect x="2.80273" y="6.72754" width="56.6234" height="49.3353" fill="white"/>
<path d="M58.3336 0H4.65063C2.08338 0 0 2.03437 0 4.5395V58.4544C0 60.963 2.08338 63 4.65063 63H58.3336C60.9026 63 63 60.963 63 58.4544V4.5395C63 2.03437 60.9026 0 58.3336 0ZM18.6848 53.6847H9.33625V23.6206H18.6848V53.6847ZM14.0105 19.5099C11.0154 19.5099 8.59425 17.0826 8.59425 14.0901C8.59425 11.102 11.0154 8.67475 14.0105 8.67475C16.9986 8.67475 19.4259 11.102 19.4259 14.0901C19.4259 17.0826 16.9986 19.5099 14.0105 19.5099ZM53.6812 53.6847H44.3476V39.0652C44.3476 35.5775 44.2794 31.0931 39.4905 31.0931C34.6272 31.0931 33.8861 34.8915 33.8861 38.8124V53.6856H24.5455V23.6206H33.5099V27.7261H33.6376C34.8854 25.3636 37.9339 22.8708 42.4804 22.8708C51.9356 22.8708 53.6821 29.0955 53.6821 37.1936L53.6812 53.6847Z" fill="#0077B7"/>
</svg>
