<svg width="60" height="60" viewBox="0 0 60 60" fill="none" xmlns="http://www.w3.org/2000/svg">
<path d="M11.7496 27.1875L28.2496 10.6875C28.4996 10.4375 28.7704 10.26 29.062 10.155C29.3537 10.0517 29.6662 10 29.9995 10C30.3329 10 30.6454 10.0517 30.937 10.155C31.2287 10.26 31.4995 10.4375 31.7495 10.6875L48.2495 27.1875C48.7079 27.6458 48.9479 28.2183 48.9695 28.905C48.9895 29.5933 48.7495 30.1875 48.2495 30.6875C47.7912 31.1875 47.2187 31.4483 46.532 31.47C45.8437 31.49 45.2495 31.25 44.7495 30.75L32.4995 18.5L32.4995 46.4375C32.4995 47.1458 32.2604 47.74 31.782 48.22C31.302 48.6983 30.7079 48.9375 29.9995 48.9375C29.2912 48.9375 28.6979 48.6983 28.2195 48.22C27.7395 47.74 27.4995 47.1458 27.4995 46.4375L27.4996 18.5L15.2496 30.75C14.7912 31.2083 14.2079 31.4483 13.4995 31.47C12.7912 31.49 12.2079 31.25 11.7496 30.75C11.2496 30.2917 10.9995 29.7083 10.9995 29C10.9995 28.2917 11.2496 27.6875 11.7496 27.1875Z" fill="white"/>
</svg>
