<svg width="61" height="49" viewBox="0 0 61 49" fill="none" xmlns="http://www.w3.org/2000/svg">
<g clip-path="url(#clip0_174_70)">
<path d="M59.0186 8.25864C58.6745 6.81159 58.0032 5.49236 57.0715 4.43231C56.1399 3.37227 54.9804 2.6084 53.7086 2.21677C49.0525 0.771973 30.3133 0.771973 30.3133 0.771973C30.3133 0.771973 11.5732 0.815706 6.91708 2.26051C5.64524 2.65216 4.48577 3.41607 3.55413 4.47616C2.62249 5.53625 1.95119 6.85554 1.60708 8.30264C0.198717 17.7154 -0.347611 32.0584 1.64575 41.0946C1.9899 42.5417 2.66122 43.8609 3.59285 44.921C4.52449 45.981 5.68394 46.7449 6.95575 47.1365C11.6118 48.5813 30.3515 48.5813 30.3515 48.5813C30.3515 48.5813 49.091 48.5813 53.7468 47.1365C55.0187 46.7449 56.1782 45.9811 57.1099 44.921C58.0416 43.861 58.7129 42.5417 59.0571 41.0946C60.5425 31.6685 61.0003 17.3344 59.0186 8.25864Z" fill="#FF0000"/>
<path d="M24.3496 34.9212L39.8952 24.6764L24.3496 14.4316V34.9212Z" fill="white"/>
</g>
<defs>
<clipPath id="clip0_174_70">
<rect width="60" height="48" fill="white" transform="translate(0.34375 0.771973)"/>
</clipPath>
</defs>
</svg>
